<svg width="26" height="37" viewBox="0 0 26 37" fill="none" xmlns="http://www.w3.org/2000/svg">
<path d="M23.7987 16.3295L14.2234 1.1286C14.0845 0.934207 13.901 0.775737 13.6882 0.666393C13.4754 0.557049 13.2394 0.5 13 0.5C12.7606 0.5 12.5246 0.557049 12.3118 0.666393C12.099 0.775737 11.9155 0.934207 11.7766 1.1286L2.158 16.4015C0.821723 18.5504 0.0773728 21.0126 0 23.5398C0 26.977 1.36964 30.2735 3.80761 32.704C6.24558 35.1345 9.55219 36.5 13 36.5C16.4478 36.5 19.7544 35.1345 22.1924 32.704C24.6304 30.2735 26 26.977 26 23.5398C25.917 20.9848 25.1575 18.4973 23.7987 16.3295V16.3295ZM13 33.6199C10.3194 33.6165 7.74962 32.5534 5.85416 30.6637C3.95871 28.7741 2.89233 26.2121 2.88889 23.5398C2.96566 21.526 3.57241 19.5678 4.64822 17.8617L5.99878 15.7161L20.5501 30.2229C19.605 31.2904 18.4432 32.1454 17.1415 32.7313C15.8399 33.3172 14.4282 33.6206 13 33.6214V33.6199Z" fill="white"/>
</svg>
