<svg width="352" height="329" viewBox="0 0 352 329" fill="none" xmlns="http://www.w3.org/2000/svg">
<path d="M211.124 200.312C213.282 202.256 214.58 204.978 214.732 207.879C214.884 210.78 213.878 213.623 211.935 215.782L189.43 241.354H230.582C232.64 241.36 234.654 241.946 236.395 243.044C238.135 244.142 239.531 245.707 240.423 247.562C241.315 249.416 241.666 251.485 241.437 253.53C241.208 255.575 240.408 257.514 239.128 259.125L185.442 324.863C183.632 327.138 180.992 328.601 178.103 328.93C175.214 329.258 172.313 328.426 170.038 326.616C167.762 324.805 166.3 322.165 165.971 319.277C165.642 316.388 166.474 313.486 168.285 311.211L207.837 263.267H164.844C162.728 263.266 160.657 262.653 158.881 261.501C157.106 260.348 155.702 258.706 154.84 256.773C153.978 254.84 153.694 252.699 154.023 250.608C154.352 248.517 155.279 246.567 156.693 244.991L195.632 201.122C196.595 200.05 197.76 199.179 199.06 198.558C200.36 197.937 201.77 197.578 203.209 197.503C204.649 197.428 206.088 197.637 207.446 198.119C208.804 198.601 210.054 199.346 211.124 200.312V200.312ZM197.713 65.9877C251.728 65.9877 282.362 100.478 286.81 142.112H288.168C322.922 142.112 351.101 169.218 351.101 202.656C351.101 236.095 322.922 263.201 288.168 263.201H261.654C268.25 244.663 256.592 223.473 236.499 219.945L233.716 219.573C235.647 212.436 235.116 204.856 232.207 198.058C229.299 191.261 224.184 185.642 217.688 182.11C211.192 178.579 203.695 177.34 196.409 178.595C189.122 179.85 182.472 183.525 177.532 189.027L140.412 230.332C136.418 234.687 133.694 240.054 132.535 245.848C131.376 251.643 131.827 257.644 133.838 263.201H107.258C72.5049 263.201 44.3253 236.095 44.3253 202.656C44.3253 169.218 72.5049 142.112 107.258 142.112H108.617C113.109 100.193 143.699 65.9877 197.713 65.9877ZM140.565 0.250001C172.47 0.250001 200.299 18.3936 214.038 45.0612C208.622 44.3971 203.17 44.0678 197.713 44.0751C145.342 44.0751 107.171 72.7149 93.5409 116.08L92.1823 120.769L91.1744 124.867L87.5588 125.524C74.3259 128.219 61.9659 134.148 51.5814 142.782C41.1969 151.415 33.1107 162.485 28.0443 175.003C17.6053 168.643 9.46688 159.119 4.812 147.816C0.157121 136.513 -0.771571 124.021 2.16092 112.154C5.09342 100.287 11.7342 89.6647 21.1181 81.8311C30.5019 73.9975 42.1395 69.3609 54.3393 68.5953L59.2039 68.4857C62.5829 49.3633 72.5902 32.0423 87.4689 19.5639C102.348 7.08553 121.147 0.247361 140.565 0.250001V0.250001Z" fill="white"/>
</svg>
