<?xml version="1.0" encoding="UTF-8" standalone="no"?>
<svg
   width="1919.2026"
   height="290.86871"
   viewBox="0 0 1919.2026 290.86871"
   fill="none"
   version="1.1"
   id="svg4"
   sodipodi:docname="hills2.svg"
   inkscape:version="1.1.1 (3bf5ae0, 2021-09-20)"
   xmlns:inkscape="http://www.inkscape.org/namespaces/inkscape"
   xmlns:sodipodi="http://sodipodi.sourceforge.net/DTD/sodipodi-0.dtd"
   xmlns="http://www.w3.org/2000/svg"
   xmlns:svg="http://www.w3.org/2000/svg">
  <defs
     id="defs8" />
  <sodipodi:namedview
     id="namedview6"
     pagecolor="#ffffff"
     bordercolor="#666666"
     borderopacity="1.0"
     inkscape:pageshadow="2"
     inkscape:pageopacity="0.0"
     inkscape:pagecheckerboard="0"
     showgrid="false"
     inkscape:zoom="0.53069837"
     inkscape:cx="299.60521"
     inkscape:cy="439.04412"
     inkscape:window-width="1920"
     inkscape:window-height="999"
     inkscape:window-x="0"
     inkscape:window-y="0"
     inkscape:window-maximized="1"
     inkscape:current-layer="svg4"
     fit-margin-top="0"
     fit-margin-left="0"
     fit-margin-right="0"
     fit-margin-bottom="0" />
  <path
     fill="#003000"
     fill-opacity="1"
     d="m 0,98.868693 9.4627345,-10.7 c 9.3294585,-10.3 27.8550955,-32.3 46.5140105,-42.6 19.325303,-10.7 38.650608,-10.7 57.309525,10.6 18.39235,21.7 37.31783,63.699997 55.97674,79.999997 18.92547,15.70001 37.31782,5.7 55.97675,-26.6 19.3253,-31.699997 38.6506,-85.699997 57.30951,-85.399997 18.52565,-0.3 37.31784,53.7 55.97675,58.7 18.92547,5 37.31783,-37 55.97675,-32 19.45858,5 38.6506,58.999997 57.30951,58.699997 18.52565,0.3 37.31784,-53.699997 55.97675,-63.999997 19.05875,-10.7 37.31783,21.3 57.30953,16 18.12579,-5.7 37.31781,-47.7 55.97672,-58.7000003 18.65892,-11 37.31784,11.0000003 55.97675,42.7000003 19.19203,32.3 37.31783,74.299997 57.30953,117.300007 18.25908,43 37.31782,85 55.97674,96 18.79219,11 37.31783,-11 55.97674,-53.3 19.19203,-42.7 38.65062,-106.700007 57.30953,-128.000007 18.39236,-21.7 37.31783,0.3 55.97674,21.3 18.7922,20.999997 37.31778,42.999997 55.97669,42.699997 19.3254,0.3 38.6507,-21.7 57.3095,-37.4 18.3924,-16.299997 37.3179,-26.299997 55.9768,-42.599997 18.9254,-15.7 37.3178,-37.7 55.9768,-48 19.3253,-10.7000003 38.6506,-10.7000003 57.3095,21.3 18.5256,32 37.3178,95.999997 55.9767,138.700007 18.9255,42.3 37.3178,64.3 55.9767,48 19.4586,-15.7 38.6506,-69.7 57.3096,-74.7 18.5256,-5.00001 37.3178,37 55.9767,58.7 19.0587,21.3 37.3179,21.3 57.3095,-5.4 18.1259,-26.3 37.3179,-80.30001 55.9767,-112.000007 18.659,-32.3 37.3179,-42.3 55.9769,-21.3 19.192,21 37.3178,74.999997 57.3094,69.299997 18.2591,-5.3 37.3179,-69.299997 55.9768,-69.299997 18.7921,0 37.3178,63.999997 55.9768,90.700007 19.192,26.3 38.6505,16.3 57.3095,5.3 18.3923,-11 37.3178,-21.00001 46.6473,-26.70001 l 9.3294,-5.3 V 290.8687 h -9.4627 c -9.3295,0 -27.8551,0 -46.514,0 -19.3253,0 -38.6506,0 -57.3095,0 -18.3924,0 -37.3179,0 -55.9768,0 -18.9255,0 -37.3179,0 -55.9768,0 -19.3253,0 -38.6506,0 -57.3094,0 -18.5257,0 -37.3179,0 -55.9769,0 -18.9254,0 -37.3177,0 -55.9767,0 -19.4585,0 -38.6506,0 -57.3095,0 -18.5256,0 -37.3178,0 -55.9767,0 -19.0588,0 -37.3178,0 -57.3096,0 -18.1257,0 -37.3177,0 -55.9767,0 -18.6589,0 -37.3179,0 -55.9767,0 -19.192,0 -37.3179,0 -57.3095,0 -18.2592,0 -37.3179,0 -55.9768,0 -18.7922,0 -37.3178,0 -55.9768,0 -19.192,0 -38.6506,0 -57.3095,0 -18.39229,0 -37.31778,0 -55.97669,0 -18.79219,0 -37.31783,0 -55.97674,0 -19.32531,0 -38.65061,0 -57.30953,0 -18.39235,0 -37.31783,0 -55.97674,0 -18.92547,0 -37.31783,0 -55.97674,0 -19.32531,0 -38.65061,0 -57.30953,0 -18.52563,0 -37.31783,0 -55.97675,0 -18.92546,0 -37.31782,0 -55.97672,0 -19.45858,0 -38.65062,0 -57.30953,0 -18.52563,0 -37.31782,0 -55.97675,0 -19.05874,0 -37.31782,0 -57.30951,0 -18.12581,0 -37.31784,0 -55.97675,0 -18.65891,0 -37.31783,0 -55.97675,0 -19.19202,0 -37.31782,0 -57.30951,0 -18.25909,0 -37.31784,0 -55.97675,0 -18.79219,0 -37.31783,0 -55.97674,0 -19.192029,0 -38.650611,0 -57.309525,0 -18.39236,0 -37.31783,0 -46.6472875,0 H 0 Z"
     id="path34"
     style="stroke-width:1.15446" />
</svg>
