<svg width="326" height="326" viewBox="0 0 326 326" fill="none" xmlns="http://www.w3.org/2000/svg">
<path d="M267.646 171.977C267.726 147.787 257.902 124.462 240.141 106.668C222.381 88.875 197.993 77.9259 171.858 76.0121C145.723 74.0982 119.769 81.3608 99.1884 96.3464C78.6082 111.332 64.92 132.936 60.8629 156.834C71.541 156.041 82.2191 156.298 92.8275 157.519C124.189 161.16 153.275 173.048 180.318 187.59C196.799 196.479 217.645 199.006 239.558 196.222C248.82 195.023 257.664 192.966 265.743 190.375C266.996 184.421 267.646 178.252 267.646 171.955V171.977Z" fill="white"/>
<path d="M48.491 51.3066L46.8893 50.0643C44.5061 48.537 41.5894 47.8887 38.714 48.2472C35.8385 48.6057 33.2128 49.9449 31.3544 52.0009C29.496 54.0569 28.5396 56.6807 28.6738 59.355C28.808 62.0294 30.0229 64.5604 32.0792 66.4492L51.9962 84.826L53.6211 86.0683C56.0042 87.5955 58.9209 88.2438 61.7964 87.8854C64.6719 87.5269 67.2975 86.1877 69.1559 84.1317C71.0144 82.0756 71.9707 79.4519 71.8366 76.7776C71.7024 74.1032 70.4874 71.5722 68.4311 69.6834L48.491 51.3066Z" fill="white"/>
<path d="M296.012 64.9714C297.667 62.7726 298.37 60.0814 297.982 57.4283C297.593 54.7752 296.142 52.3525 293.913 50.6378C291.685 48.9231 288.841 48.0407 285.943 48.1645C283.044 48.2883 280.301 49.4093 278.254 51.3066L258.314 69.6834L256.968 71.1827C255.339 73.3826 254.657 76.0638 255.056 78.7025C255.455 81.3413 256.905 83.7481 259.124 85.4529C261.343 87.1578 264.172 88.0382 267.056 87.9223C269.941 87.8064 272.676 86.7024 274.726 84.826L294.666 66.4493L296.012 64.95V64.9714Z" fill="white"/>
<path d="M174.863 9.60555C174.346 6.97225 172.78 4.61288 170.472 2.99205C168.164 1.37121 165.282 0.606394 162.393 0.848194C159.505 1.08999 156.819 2.32089 154.865 4.29849C152.911 6.27609 151.83 8.85708 151.836 11.5332V37.5134L152.021 39.4411C152.538 42.0744 154.105 44.4337 156.412 46.0546C158.72 47.6754 161.602 48.4402 164.491 48.1984C167.379 47.9566 170.065 46.7257 172.019 44.7481C173.973 42.7705 175.054 40.1895 175.049 37.5134V11.5118L174.863 9.58413V9.60555Z" fill="white"/>
<path d="M17.4775 213.164C41.9906 200.827 64.7396 197.443 87.0475 200.013C109.657 202.647 132.545 211.472 156.919 224.601C184.845 239.615 216.902 242.357 245.919 238.651C274.889 234.946 301.862 224.708 320.433 212.478C322.939 210.825 324.63 208.321 325.135 205.518C325.64 202.714 324.917 199.84 323.126 197.528C321.334 195.216 318.621 193.656 315.582 193.19C312.543 192.724 309.429 193.391 306.923 195.044C291.649 205.11 268.25 214.17 242.738 217.426C217.274 220.681 190.834 218.068 168.619 206.096C142.898 192.259 116.923 181.893 89.9259 178.766C62.6504 175.618 35.0267 179.923 6.35837 194.358C5.02012 195.032 3.83878 195.942 2.8818 197.037C1.92481 198.132 1.21093 199.39 0.780894 200.74C0.350863 202.089 0.213109 203.503 0.375501 204.902C0.537892 206.301 0.99725 207.656 1.72734 208.891C3.20183 211.384 5.68957 213.236 8.6433 214.037C10.1058 214.434 11.6388 214.561 13.1545 214.411C14.6703 214.261 16.1393 213.837 17.4775 213.164V213.164Z" fill="white"/>
<path d="M87.0475 242.849C64.7397 240.279 41.9907 243.663 17.4776 256C16.1393 256.675 14.6701 257.1 13.1537 257.251C11.6374 257.402 10.1036 257.277 8.63998 256.881C5.68408 256.081 3.19338 254.231 1.71582 251.738C0.984201 250.503 0.523332 249.147 0.359532 247.748C0.195732 246.349 0.332208 244.934 0.761162 243.584C1.62747 240.856 3.63253 238.558 6.33524 237.195C35.0268 222.759 62.6505 218.454 89.9492 221.602C116.923 224.729 142.899 235.096 168.642 248.932C190.834 260.883 217.274 263.518 242.739 260.284C268.227 257.007 291.649 247.968 306.923 237.88C309.429 236.227 312.543 235.56 315.582 236.026C318.621 236.492 321.334 238.053 323.126 240.365C324.917 242.677 325.64 245.551 325.135 248.354C324.63 251.158 322.939 253.662 320.433 255.315C301.863 267.523 274.866 277.782 245.919 281.488C216.902 285.193 184.845 282.451 156.919 267.437C132.545 254.308 109.657 245.484 87.0475 242.849Z" fill="white"/>
<path d="M17.4775 298.836C41.9907 286.499 64.7396 283.115 87.0475 285.686C109.657 288.32 132.545 297.144 156.919 310.274C184.845 325.288 216.902 328.029 245.919 324.324C274.889 320.619 301.862 310.381 320.433 298.151C322.939 296.498 324.63 293.994 325.135 291.191C325.64 288.387 324.917 285.513 323.126 283.201C321.334 280.889 318.621 279.328 315.582 278.863C312.543 278.397 309.429 279.064 306.923 280.717C291.649 290.783 268.25 299.843 242.738 303.099C217.274 306.354 190.834 303.741 168.619 291.768C142.898 277.932 116.923 267.566 89.9259 264.439C62.6504 261.29 35.0267 265.595 6.35839 280.031C3.65568 281.392 1.6494 283.687 0.780913 286.412C-0.0875742 289.138 0.252873 292.07 1.72736 294.563C3.20185 297.057 5.68959 298.908 8.64332 299.71C11.597 300.511 14.7748 300.197 17.4775 298.836V298.836Z" fill="white"/>
</svg>
