<svg width="464" height="507" viewBox="0 0 464 507" fill="none" xmlns="http://www.w3.org/2000/svg">
<g clip-path="url(#clip0_1_27)">
<path d="M341.678 263.146C337.46 241.882 326.55 222.525 310.543 207.906C294.537 193.286 274.273 184.171 252.715 181.892C231.156 179.614 209.435 184.292 190.725 195.242C172.016 206.192 157.3 222.84 148.73 242.752C139.119 241.645 129.383 242.511 120.118 245.298C110.853 248.084 102.255 252.732 94.849 258.957C87.4431 265.182 81.3856 272.854 77.0476 281.501C72.7095 290.149 70.1821 299.591 69.6201 309.249C69.058 318.907 70.4732 328.579 73.779 337.671C77.0847 346.764 82.2115 355.086 88.8453 362.128C95.4792 369.17 103.481 374.784 112.36 378.626C121.239 382.468 130.808 384.458 140.483 384.473H333.452C348.912 384.49 363.801 378.631 375.102 368.082C386.404 357.533 393.274 343.082 394.319 327.658C395.365 312.233 390.509 296.988 380.735 285.009C370.961 273.031 356.999 265.216 341.678 263.146V263.146Z" fill="white"/>
</g>
<defs>
<clipPath id="clip0_1_27">
<rect width="325" height="325" fill="white" transform="translate(69.5 91)"/>
</clipPath>
</defs>
</svg>
