<svg width="32" height="32" viewBox="0 0 32 32" fill="none" xmlns="http://www.w3.org/2000/svg">
<path d="M17.3334 7.33334C17.3334 4.76001 15.24 2.66667 12.6667 2.66667C9.95469 2.66667 8.33335 4.70001 8.33335 6.66667H11C11 6.11334 11.5174 5.33334 12.6667 5.33334C13.7694 5.33334 14.6667 6.23067 14.6667 7.33334C14.6667 8.43601 13.7694 9.33334 12.6667 9.33334H2.66669V12H12.6667C15.24 12 17.3334 9.90667 17.3334 7.33334ZM20.6667 20H10.6667V22.6667H20.6667C21.7694 22.6667 22.6667 23.564 22.6667 24.6667C22.6667 25.7693 21.7694 26.6667 20.6667 26.6667C19.5174 26.6667 19 25.8867 19 25.3333H16.3334C16.3334 27.3 17.9547 29.3333 20.6667 29.3333C23.24 29.3333 25.3334 27.24 25.3334 24.6667C25.3334 22.0933 23.24 20 20.6667 20Z" fill="white"/>
<path d="M24 6.66667C21.0587 6.66667 18.6667 9.05867 18.6667 12H21.3334C21.3334 10.5293 22.5294 9.33334 24 9.33334C25.4707 9.33334 26.6667 10.5293 26.6667 12C26.6667 13.4707 25.4707 14.6667 24 14.6667H2.66669V17.3333H24C26.9414 17.3333 29.3334 14.9413 29.3334 12C29.3334 9.05867 26.9414 6.66667 24 6.66667ZM2.66669 20H8.00002V22.6667H2.66669V20Z" fill="white"/>
</svg>
