<?xml version="1.0" encoding="UTF-8" standalone="no"?>
<svg
   width="1919.2026"
   height="357.26575"
   viewBox="0 0 1919.2026 357.26574"
   fill="none"
   version="1.1"
   id="svg4"
   sodipodi:docname="hills2.svg"
   inkscape:version="1.1.1 (3bf5ae0, 2021-09-20)"
   xmlns:inkscape="http://www.inkscape.org/namespaces/inkscape"
   xmlns:sodipodi="http://sodipodi.sourceforge.net/DTD/sodipodi-0.dtd"
   xmlns="http://www.w3.org/2000/svg"
   xmlns:svg="http://www.w3.org/2000/svg">
  <defs
     id="defs8" />
  <sodipodi:namedview
     id="namedview6"
     pagecolor="#ffffff"
     bordercolor="#666666"
     borderopacity="1.0"
     inkscape:pageshadow="2"
     inkscape:pageopacity="0.0"
     inkscape:pagecheckerboard="0"
     showgrid="false"
     inkscape:zoom="0.53069837"
     inkscape:cx="1184.2885"
     inkscape:cy="391.93638"
     inkscape:window-width="1920"
     inkscape:window-height="999"
     inkscape:window-x="0"
     inkscape:window-y="0"
     inkscape:window-maximized="1"
     inkscape:current-layer="svg4"
     fit-margin-top="0"
     fit-margin-left="0"
     fit-margin-right="0"
     fit-margin-bottom="0"
     inkscape:lockguides="true" />
  <path
     fill="#003000"
     fill-opacity="1"
     d="M 0,121.43761 9.4627345,108.2951 C 18.792193,95.643903 37.31783,68.621927 55.976745,55.970731 75.302048,42.828225 94.627353,42.828225 113.28627,68.990409 c 18.39235,26.653494 37.31783,78.240891 55.97674,98.261721 18.92547,19.28388 37.31782,7.00115 55.97675,-32.67202 19.3253,-38.936207 38.6506,-105.262873 57.30951,-104.894391 18.52565,-0.368482 37.31784,65.958184 55.97675,72.099541 18.92547,6.14136 37.31783,-45.446048 55.97675,-39.30469 19.45858,6.141357 38.6506,72.46802 57.30951,72.09954 18.52565,0.36848 37.31784,-65.958183 55.97675,-78.609379 19.05875,-13.142506 37.31783,26.162184 57.30953,19.652344 18.12579,-7.001148 37.31781,-58.588553 55.97672,-72.0995415 18.65892,-13.510987 37.31784,13.5109885 55.97675,52.4471975 19.19203,39.673172 37.31783,91.260569 57.30953,144.076269 18.25908,52.81568 37.31782,104.40308 55.97674,117.91407 18.79219,13.51099 37.31783,-13.51099 55.97674,-65.46688 19.19203,-52.44719 38.65062,-131.05658 57.30953,-157.218769 18.39236,-26.653494 37.31783,0.368482 55.97674,26.162189 18.7922,25.79369 37.31778,52.81567 55.97669,52.44719 19.3254,0.36848 38.6507,-26.6535 57.3095,-45.93736 18.3924,-20.02082 37.3179,-32.303537 55.9768,-52.324365 18.9254,-19.283863 37.3178,-46.305838 55.9768,-58.957035 19.3253,-13.1425065 38.6506,-13.1425065 57.3095,26.162185 18.5256,39.30469 37.3178,117.914065 55.9767,170.361275 18.9255,51.95589 37.3178,78.97787 55.9767,58.95704 19.4586,-19.28386 38.6506,-85.61053 57.3096,-91.75189 18.5256,-6.14137 37.3178,45.44605 55.9767,72.09954 19.0587,26.16219 37.3179,26.16219 57.3095,-6.63266 18.1259,-32.30354 37.3179,-98.63023 55.9767,-137.56643 18.659,-39.673173 37.3179,-51.955888 55.9769,-26.162185 19.192,25.793705 37.3178,92.120365 57.3094,85.119215 18.2591,-6.50984 37.3179,-85.119215 55.9768,-85.119215 18.7921,0 37.3178,78.609375 55.9768,111.404245 19.192,32.30354 38.6505,20.02083 57.3095,6.50984 18.3923,-13.51099 37.3178,-25.79372 46.6473,-32.79487 l 9.3294,-6.50984 v 196.52347 h -9.4627 c -9.3295,0 -27.8551,0 -46.514,0 -19.3253,0 -38.6506,0 -57.3095,0 -18.3924,0 -37.3179,0 -55.9768,0 -18.9255,0 -37.3179,0 -55.9768,0 -19.3253,0 -38.6506,0 -57.3094,0 -18.5257,0 -37.3179,0 -55.9769,0 -18.9254,0 -37.3177,0 -55.9767,0 -19.4585,0 -38.6506,0 -57.3095,0 -18.5256,0 -37.3178,0 -55.9767,0 -19.0588,0 -37.3178,0 -57.3096,0 -18.1257,0 -37.3177,0 -55.9767,0 -18.6589,0 -37.3179,0 -55.9767,0 -19.192,0 -37.3179,0 -57.3095,0 -18.2592,0 -37.3179,0 -55.9768,0 -18.7922,0 -37.3178,0 -55.9768,0 -19.192,0 -38.6506,0 -57.3095,0 -18.39229,0 -37.31778,0 -55.97669,0 -18.79219,0 -37.31783,0 -55.97674,0 -19.32531,0 -38.65061,0 -57.30953,0 -18.39235,0 -37.31783,0 -55.97674,0 -18.92547,0 -37.31783,0 -55.97674,0 -19.32531,0 -38.65061,0 -57.30953,0 -18.52563,0 -37.31783,0 -55.97675,0 -18.92546,0 -37.31782,0 -55.97672,0 -19.45858,0 -38.65062,0 -57.30953,0 -18.52563,0 -37.31782,0 -55.97675,0 -19.05874,0 -37.31782,0 -57.30951,0 -18.12581,0 -37.31784,0 -55.97675,0 -18.65891,0 -37.31783,0 -55.97675,0 -19.19202,0 -37.31782,0 -57.30951,0 -18.25909,0 -37.31784,0 -55.97675,0 -18.79219,0 -37.31783,0 -55.97674,0 -19.192029,0 -38.650611,0 -57.309525,0 -18.39236,0 -37.31783,0 -46.6472875,0 H 0 Z"
     id="path34"
     style="fill:#001900;fill-opacity:1;stroke-width:1.27946" />
  <path
     fill="#003000"
     fill-opacity="1"
     d="m -0.79738,175.53875 40,8.68071 c 40,8.35621 120,26.2044 200,17.28029 80,-8.92408 160,-42.99791 240,-47.62221 79.99997,-4.29979 159.99997,21.66121 239.99997,38.9415 80,17.60482 160,25.71763 240,43.32243 80.00001,17.28027 160.00001,43.24129 240.00001,47.54108 80,4.6243 160,-13.22388 240,-43.2413 80,-30.01739 160,-73.8266 240,-86.56371 80,-13.22388 160,4.6243 200,12.9805 l 40,8.68071 v 181.72701 h -40 c -40,0 -120,0 -200,0 -80,0 -160,0 -240,0 -80,0 -160,0 -240,0 -80,0 -160,0 -240.00001,0 -80,0 -160,0 -240,0 -80,0 -160,0 -239.99997,0 -80,0 -160,0 -240,0 -80,0 -160,0 -200,0 h -40 z"
     id="path6"
     style="stroke-width:1.04005" />
</svg>
