<svg width="326" height="326" viewBox="0 0 326 326" fill="none" xmlns="http://www.w3.org/2000/svg">
<path d="M163.681 0.5C166.369 0.5 168.946 1.57003 170.846 3.4747C172.746 5.37936 173.814 7.96264 173.814 10.6562V30.9688C173.814 33.6624 172.746 36.2456 170.846 38.1503C168.946 40.055 166.369 41.125 163.681 41.125C160.994 41.125 158.416 40.055 156.516 38.1503C154.616 36.2456 153.548 33.6624 153.548 30.9688V10.6562C153.548 7.96264 154.616 5.37936 156.516 3.4747C158.416 1.57003 160.994 0.5 163.681 0.5V0.5ZM244.744 163C244.744 184.549 236.203 205.215 221.001 220.452C205.799 235.69 185.18 244.25 163.681 244.25C142.182 244.25 121.563 235.69 106.361 220.452C91.1591 205.215 82.6186 184.549 82.6186 163C82.6186 141.451 91.1591 120.785 106.361 105.548C121.563 90.3102 142.182 81.75 163.681 81.75C185.18 81.75 205.799 90.3102 221.001 105.548C236.203 120.785 244.744 141.451 244.744 163V163ZM315.673 173.156C318.361 173.156 320.938 172.086 322.838 170.182C324.739 168.277 325.806 165.694 325.806 163C325.806 160.306 324.739 157.723 322.838 155.818C320.938 153.914 318.361 152.844 315.673 152.844H295.408C292.72 152.844 290.143 153.914 288.243 155.818C286.342 157.723 285.275 160.306 285.275 163C285.275 165.694 286.342 168.277 288.243 170.182C290.143 172.086 292.72 173.156 295.408 173.156H315.673ZM163.681 284.875C166.369 284.875 168.946 285.945 170.846 287.85C172.746 289.754 173.814 292.338 173.814 295.031V315.344C173.814 318.037 172.746 320.621 170.846 322.525C168.946 324.43 166.369 325.5 163.681 325.5C160.994 325.5 158.416 324.43 156.516 322.525C154.616 320.621 153.548 318.037 153.548 315.344V295.031C153.548 292.338 154.616 289.754 156.516 287.85C158.416 285.945 160.994 284.875 163.681 284.875V284.875ZM31.9545 173.156C34.6419 173.156 37.2192 172.086 39.1195 170.182C41.0197 168.277 42.0873 165.694 42.0873 163C42.0873 160.306 41.0197 157.723 39.1195 155.818C37.2192 153.914 34.6419 152.844 31.9545 152.844H10.939C8.25164 152.844 5.67432 153.914 3.77404 155.818C1.87377 157.723 0.806213 160.306 0.806213 163C0.806213 165.694 1.87377 168.277 3.77404 170.182C5.67432 172.086 8.25164 173.156 10.939 173.156H31.9545ZM45.0461 44.0906C45.9873 43.1448 47.1055 42.3944 48.3365 41.8824C49.5676 41.3704 50.8873 41.1068 52.2201 41.1068C53.5529 41.1068 54.8727 41.3704 56.1037 41.8824C57.3347 42.3944 58.4529 43.1448 59.3942 44.0906L79.6598 64.4031C81.5625 66.3102 82.6314 68.8967 82.6314 71.5938C82.6314 74.2908 81.5625 76.8773 79.6598 78.7844C77.7571 80.6914 75.1765 81.7628 72.4858 81.7628C69.795 81.7628 67.2144 80.6914 65.3117 78.7844L45.0461 58.4719C44.1025 57.5284 43.3538 56.4077 42.843 55.1738C42.3321 53.9399 42.0692 52.6171 42.0692 51.2812C42.0692 49.9454 42.3321 48.6226 42.843 47.3887C43.3538 46.1548 44.1025 45.0341 45.0461 44.0906ZM59.3942 281.909C57.4915 283.816 54.9109 284.888 52.2201 284.888C49.5293 284.888 46.9488 283.816 45.0461 281.909C43.1434 280.002 42.0745 277.416 42.0745 274.719C42.0745 272.022 43.1434 269.435 45.0461 267.528L65.3117 247.216C67.2144 245.309 69.795 244.237 72.4858 244.237C75.1765 244.237 77.7571 245.309 79.6598 247.216C81.5625 249.123 82.6314 251.709 82.6314 254.406C82.6314 257.103 81.5625 259.69 79.6598 261.597L59.3942 281.909ZM282.316 44.0906C281.375 43.1448 280.257 42.3944 279.026 41.8824C277.795 41.3704 276.475 41.1068 275.142 41.1068C273.809 41.1068 272.49 41.3704 271.259 41.8824C270.027 42.3944 268.909 43.1448 267.968 44.0906L247.702 64.4031C245.8 66.3102 244.731 68.8967 244.731 71.5938C244.731 74.2908 245.8 76.8773 247.702 78.7844C249.605 80.6914 252.186 81.7628 254.876 81.7628C257.567 81.7628 260.148 80.6914 262.051 78.7844L282.316 58.4719C283.26 57.5284 284.008 56.4077 284.519 55.1738C285.03 53.9399 285.293 52.6171 285.293 51.2812C285.293 49.9454 285.03 48.6226 284.519 47.3887C284.008 46.1548 283.26 45.0341 282.316 44.0906ZM267.968 281.909C269.871 283.816 272.451 284.888 275.142 284.888C277.833 284.888 280.413 283.816 282.316 281.909C284.219 280.002 285.288 277.416 285.288 274.719C285.288 272.022 284.219 269.435 282.316 267.528L262.051 247.216C260.148 245.309 257.567 244.237 254.876 244.237C252.186 244.237 249.605 245.309 247.702 247.216C245.8 249.123 244.731 251.709 244.731 254.406C244.731 257.103 245.8 259.69 247.702 261.597L267.968 281.909Z" fill="white"/>
</svg>
