<svg width="325" height="256" viewBox="0 0 325 256" fill="none" xmlns="http://www.w3.org/2000/svg">
<path d="M178.778 51.3399C230.254 51.3399 259.469 87.1191 263.71 130.337H265.01C272.879 130.326 280.672 131.943 287.946 135.095C295.22 138.247 301.831 142.873 307.401 148.709C312.972 154.544 317.394 161.475 320.413 169.105C323.433 176.735 324.991 184.915 325 193.177C324.989 201.438 323.429 209.617 320.409 217.245C317.388 224.873 312.966 231.801 307.396 237.635C301.825 243.469 295.215 248.093 287.942 251.244C280.67 254.395 272.877 256.011 265.01 256H92.5303C84.6629 256.011 76.8705 254.395 69.598 251.244C62.3254 248.093 55.7151 243.469 50.1445 237.635C44.5739 231.801 40.1521 224.873 37.1315 217.245C34.111 209.617 32.5508 201.438 32.5402 193.177C32.5487 184.915 34.1073 176.735 37.1269 169.105C40.1465 161.475 44.568 154.544 50.1388 148.709C55.7096 142.873 62.3206 138.247 69.5942 135.095C76.8678 131.943 84.6616 130.326 92.5303 130.337H93.8302C98.1036 86.8291 127.302 51.3399 178.778 51.3399V51.3399ZM130 0C156.274 0 179.558 13.9056 193.37 35.1821C188.527 34.5742 183.655 34.2722 178.778 34.2778C130.13 34.2778 94.7563 62.8909 82.3099 106.16L81.2049 110.255L80.2625 114.316L76.9153 114.982C64.1047 117.842 52.2145 124.128 42.3963 133.23C32.5781 142.332 25.1646 153.942 20.8736 166.936C12.2353 159.979 5.83161 150.412 2.52283 139.522C-0.785957 128.631 -0.841303 116.938 2.36422 106.013C5.56975 95.0886 11.8826 85.4558 20.4546 78.409C29.0266 71.3623 39.4472 67.2391 50.3162 66.5934L54.4921 66.4911C57.6341 47.8594 66.9233 30.9845 80.7303 18.8262C94.5373 6.6679 111.98 0.00278708 130 0V0Z" fill="white"/>
</svg>
