<svg width="325" height="325" viewBox="0 0 325 325" fill="none" xmlns="http://www.w3.org/2000/svg">
<path d="M162.5 0C219.723 0 252.177 36.5661 256.889 80.7056H258.329C295.146 80.7056 325 109.443 325 144.894C325 180.345 295.146 209.082 258.329 209.082L242.009 209.059V209.082H241.313L219.096 249.528C217.583 252.17 215.093 254.113 212.163 254.936C209.233 255.759 206.097 255.398 203.43 253.93C200.763 252.461 198.78 250.004 197.906 247.086C197.033 244.168 197.34 241.024 198.761 238.33L214.848 209.059H172.645V209.082H171.693L149.454 249.528C147.94 252.17 145.45 254.113 142.52 254.936C139.59 255.759 136.454 255.398 133.787 253.93C131.121 252.461 129.137 250.004 128.264 247.086C127.39 244.168 127.697 241.024 129.118 238.33L145.205 209.082H102.886H102.05L79.8107 249.528C78.2975 252.17 75.8076 254.113 72.8773 254.936C69.9471 255.759 66.8109 255.398 64.1443 253.93C61.4777 252.461 59.4941 250.004 58.6208 247.086C57.7474 244.168 58.0542 241.024 59.475 238.33L75.5625 209.082H66.6714C29.8536 209.082 0 180.345 0 144.894C0 110.744 27.6714 82.8429 62.6089 80.8218L68.1107 80.7056C72.8696 36.2641 105.277 0 162.5 0Z" fill="white"/>
<path d="M110.222 262.886C112.893 264.414 114.848 266.942 115.658 269.913C116.468 272.884 116.065 276.055 114.539 278.729L91.3251 319.384C89.7596 321.981 87.241 323.863 84.3077 324.626C81.3744 325.389 78.2592 324.974 75.6277 323.469C72.9961 321.965 71.0572 319.489 70.2252 316.573C69.3932 313.656 69.7341 310.53 71.1751 307.861L94.3894 267.207C95.9169 264.533 98.4427 262.576 101.412 261.766C104.38 260.956 107.549 261.358 110.222 262.886V262.886Z" fill="white"/>
<path d="M184.182 278.729C185.623 276.061 185.964 272.935 185.132 270.018C184.3 267.102 182.361 264.626 179.73 263.122C177.098 261.617 173.983 261.202 171.05 261.965C168.116 262.728 165.598 264.61 164.032 267.207L140.818 307.862C139.377 310.53 139.036 313.656 139.868 316.573C140.7 319.489 142.639 321.965 145.271 323.469C147.902 324.974 151.017 325.389 153.951 324.626C156.884 323.863 159.402 321.981 160.968 319.384L184.182 278.729V278.729Z" fill="white"/>
</svg>
