<svg width="324" height="271" viewBox="0 0 324 271" fill="none" xmlns="http://www.w3.org/2000/svg">
<path d="M161.971 0C219.002 0 251.342 37.7571 256.039 83.3248H257.479C266.197 83.3106 274.833 85.0147 282.892 88.3395C290.952 91.6644 298.277 96.5449 304.449 102.702C310.621 108.859 315.52 116.173 318.864 124.224C322.209 132.275 323.934 140.906 323.941 149.625C323.932 158.341 322.205 166.971 318.859 175.02C315.514 183.069 310.615 190.38 304.443 196.536C298.271 202.691 290.946 207.57 282.888 210.894C274.83 214.217 266.196 215.921 257.479 215.907H247.005L218.516 263.346C216.805 266.305 214.034 268.505 210.764 269.501C207.493 270.497 203.967 270.215 200.897 268.712C197.826 267.209 195.441 264.596 194.222 261.402C193.002 258.208 193.041 254.671 194.329 251.504L195.138 249.848L215.835 215.889H177.394L148.905 263.346C147.194 266.305 144.423 268.505 141.153 269.501C137.882 270.497 134.356 270.215 131.285 268.712C128.215 267.209 125.829 264.596 124.61 261.402C123.391 258.208 123.429 254.671 124.717 251.504L125.527 249.848L146.223 215.889H107.764L79.2936 263.346C77.5822 266.305 74.8116 268.505 71.5412 269.501C68.2709 270.497 64.7444 270.215 61.674 268.712C58.6036 267.209 56.218 264.596 54.9989 261.402C53.7798 258.208 53.8181 254.671 55.106 251.504L55.9158 249.848L76.5941 215.889H66.4619C57.7467 215.903 49.114 214.2 41.057 210.877C32.9999 207.555 25.6764 202.677 19.5046 196.524C13.3328 190.371 8.43367 183.062 5.08703 175.015C1.74039 166.968 0.0118073 158.34 0 149.625C0.0118088 140.911 1.7398 132.285 5.08531 124.239C8.43082 116.193 13.3283 108.885 19.4982 102.732C25.6681 96.5786 32.9895 91.7009 41.0445 88.3772C49.0994 85.0536 57.7302 83.349 66.4439 83.3608H67.8836C72.6348 37.4332 104.957 0 161.971 0Z" fill="white"/>
</svg>
