<?xml version="1.0" encoding="UTF-8" standalone="no"?>
<svg
   width="1920"
   height="256.52722"
   viewBox="0 0 1920 256.52722"
   fill="none"
   version="1.1"
   id="svg4"
   sodipodi:docname="hills1.svg"
   inkscape:version="1.1.1 (3bf5ae0, 2021-09-20)"
   xmlns:inkscape="http://www.inkscape.org/namespaces/inkscape"
   xmlns:sodipodi="http://sodipodi.sourceforge.net/DTD/sodipodi-0.dtd"
   xmlns="http://www.w3.org/2000/svg"
   xmlns:svg="http://www.w3.org/2000/svg">
  <defs
     id="defs8" />
  <sodipodi:namedview
     id="namedview6"
     pagecolor="#ffffff"
     bordercolor="#666666"
     borderopacity="1.0"
     inkscape:pageshadow="2"
     inkscape:pageopacity="0.0"
     inkscape:pagecheckerboard="0"
     showgrid="false"
     fit-margin-top="0"
     fit-margin-left="0"
     fit-margin-right="0"
     fit-margin-bottom="0"
     inkscape:zoom="0.75052083"
     inkscape:cx="1524.2748"
     inkscape:cy="317.11312"
     inkscape:window-width="1920"
     inkscape:window-height="999"
     inkscape:window-x="0"
     inkscape:window-y="0"
     inkscape:window-maximized="1"
     inkscape:current-layer="svg4" />
  <path
     fill="#003000"
     fill-opacity="1"
     d="m 0,32.527206 40,10.7 c 40,10.3 120,32.300008 200,21.299998 80,-10.999998 160,-52.999998 240,-58.699998 79.99997,-5.29999997 159.99997,26.7 239.99997,48 80,21.700008 160,31.700008 240,53.400004 80.00003,21.3 160.00003,53.3 240.00003,58.6 80,5.7 160,-16.3 240,-53.3 80,-36.999996 160,-91.000004 240,-106.700004 80,-16.3 160,5.7 200,16 l 40,10.7 V 256.52721 h -40 c -40,0 -120,0 -200,0 -80,0 -160,0 -240,0 -80,0 -160,0 -240,0 -80,0 -160,0 -240.00003,0 -80,0 -160,0 -240,0 -80,0 -160,0 -239.99997,0 -80,0 -160,0 -240,0 -80,0 -160,0 -200,0 H 0 Z"
     id="path6"
     style="stroke-width:1.1547" />
</svg>
