<svg width="326" height="325" viewBox="0 0 326 325" fill="none" xmlns="http://www.w3.org/2000/svg">
<g clip-path="url(#clip0_13_56)">
<path d="M81.7503 233.595C81.7503 230.902 82.8203 228.319 84.725 226.414C86.6297 224.509 89.2129 223.439 91.9066 223.439H274.719C277.413 223.439 279.996 224.509 281.901 226.414C283.805 228.319 284.875 230.902 284.875 233.595C284.875 236.289 283.805 238.872 281.901 240.777C279.996 242.682 277.413 243.752 274.719 243.752H91.9066C89.2129 243.752 86.6297 242.682 84.725 240.777C82.8203 238.872 81.7503 236.289 81.7503 233.595ZM20.8128 274.22C20.8128 271.527 21.8828 268.943 23.7875 267.039C25.6922 265.134 28.2754 264.064 30.969 264.064H213.782C216.475 264.064 219.058 265.134 220.963 267.039C222.868 268.943 223.938 271.527 223.938 274.22C223.938 276.914 222.868 279.497 220.963 281.402C219.058 283.306 216.475 284.377 213.782 284.377H30.969C28.2754 284.377 25.6922 283.306 23.7875 281.402C21.8828 279.497 20.8128 276.914 20.8128 274.22V274.22ZM61.4378 314.845C61.4378 312.152 62.5078 309.568 64.4125 307.664C66.3172 305.759 68.9004 304.689 71.594 304.689H254.407C257.1 304.689 259.683 305.759 261.588 307.664C263.493 309.568 264.563 312.152 264.563 314.845C264.563 317.539 263.493 320.122 261.588 322.027C259.683 323.931 257.1 325.001 254.407 325.001H71.594C68.9004 325.001 66.3172 323.931 64.4125 322.027C62.5078 320.122 61.4378 317.539 61.4378 314.845ZM272.789 81.8004C268.571 60.5366 257.661 41.1798 241.654 26.5603C225.648 11.9408 205.384 2.82533 183.826 0.546733C162.267 -1.73186 140.546 2.94591 121.836 13.8961C103.127 24.8463 88.4113 41.4946 79.8409 61.4067C70.2298 60.2995 60.4938 61.1656 51.2291 63.952C41.9644 66.7384 33.3658 71.3864 25.9599 77.6115C18.554 83.8366 12.4966 91.5078 8.15854 100.155C3.82048 108.803 1.29306 118.245 0.731031 127.903C0.169001 137.561 1.58418 147.233 4.88993 156.325C8.19568 165.418 13.3224 173.74 19.9563 180.782C26.5902 187.824 34.5916 193.438 43.4706 197.28C52.3496 201.122 61.9194 203.112 71.594 203.127H264.563C280.023 203.144 294.912 197.285 306.213 186.736C317.515 176.187 324.385 161.736 325.43 146.312C326.476 130.887 321.62 115.642 311.846 103.663C302.072 91.6853 288.11 83.8699 272.789 81.8004V81.8004Z" fill="white"/>
</g>
<defs>
<clipPath id="clip0_13_56">
<rect width="325" height="325" fill="white" transform="translate(0.5)"/>
</clipPath>
</defs>
</svg>
