<?xml version="1.0" encoding="UTF-8" standalone="no"?>
<svg
   width="1920"
   height="178.78436"
   viewBox="0 0 1920 178.78436"
   fill="none"
   version="1.1"
   id="svg4"
   sodipodi:docname="hills1.svg"
   inkscape:version="1.1.1 (3bf5ae0, 2021-09-20)"
   xmlns:inkscape="http://www.inkscape.org/namespaces/inkscape"
   xmlns:sodipodi="http://sodipodi.sourceforge.net/DTD/sodipodi-0.dtd"
   xmlns="http://www.w3.org/2000/svg"
   xmlns:svg="http://www.w3.org/2000/svg">
  <defs
     id="defs8" />
  <sodipodi:namedview
     id="namedview6"
     pagecolor="#ffffff"
     bordercolor="#666666"
     borderopacity="1.0"
     inkscape:pageshadow="2"
     inkscape:pageopacity="0.0"
     inkscape:pagecheckerboard="0"
     showgrid="false"
     fit-margin-top="0"
     fit-margin-left="0"
     fit-margin-right="0"
     fit-margin-bottom="0"
     inkscape:zoom="1.0613967"
     inkscape:cx="745.7155"
     inkscape:cy="96.099787"
     inkscape:window-width="1920"
     inkscape:window-height="999"
     inkscape:window-x="0"
     inkscape:window-y="0"
     inkscape:window-maximized="1"
     inkscape:current-layer="svg4" />
  <path
     fill="#003000"
     fill-opacity="1"
     d="m 0,22.669545 40,7.45727 c 40,7.1785 120,22.51121 200,14.84485 80,-7.66635 160,-36.9378807 240,-40.9104457 79.99997,-3.693788 159.99997,18.6083257 239.99997,33.4531757 80,15.12363 160,22.09304 240,37.21666 C 1040,89.575895 1120,111.87802 1200,115.57181 c 80,3.97256 160,-11.36014 240,-37.146965 80,-25.78682 160,-63.42165 240,-74.3636257 80,-11.36014 160,3.972565 200,11.1510577 l 40,7.457268 V 178.78437 h -40 c -40,0 -120,0 -200,0 -80,0 -160,0 -240,0 -80,0 -160,0 -240,0 -80,0 -160,0 -240.00003,0 -80,0 -160,0 -240,0 -80,0 -160,0 -239.99997,0 -80,0 -160,0 -240,0 -80,0 -160,0 -200,0 H 0 Z"
     id="path6"
     style="stroke-width:0.963978" />
</svg>
