<?xml version="1.0" encoding="UTF-8" standalone="no"?>
<svg
   width="1920"
   height="288"
   viewBox="0 0 1920 288"
   fill="none"
   version="1.1"
   id="svg4"
   sodipodi:docname="hills1.svg"
   inkscape:version="1.1.1 (3bf5ae0, 2021-09-20)"
   xmlns:inkscape="http://www.inkscape.org/namespaces/inkscape"
   xmlns:sodipodi="http://sodipodi.sourceforge.net/DTD/sodipodi-0.dtd"
   xmlns="http://www.w3.org/2000/svg"
   xmlns:svg="http://www.w3.org/2000/svg">
  <defs
     id="defs8" />
  <sodipodi:namedview
     id="namedview6"
     pagecolor="#ffffff"
     bordercolor="#666666"
     borderopacity="1.0"
     inkscape:pageshadow="2"
     inkscape:pageopacity="0.0"
     inkscape:pagecheckerboard="0"
     showgrid="false"
     fit-margin-top="0"
     fit-margin-left="0"
     fit-margin-right="0"
     fit-margin-bottom="0"
     inkscape:zoom="0.75052083"
     inkscape:cx="2011.9362"
     inkscape:cy="353.08813"
     inkscape:window-width="1920"
     inkscape:window-height="999"
     inkscape:window-x="0"
     inkscape:window-y="0"
     inkscape:window-maximized="1"
     inkscape:current-layer="svg4" />
  <path
     fill="#003000"
     fill-opacity="1"
     d="m 0,31.999996 24.666667,26.7 C 49.200001,84.999996 98.666674,139 148.00001,149.3 c 48.93333,10.7 98.66667,-21.3 148,-16 48.66667,5.7 97.33334,47.7 146.66667,48 49.59995,-0.3 98.66662,-42.3 147.99995,-42.6 49.33334,0.3 98.66667,42.3 148.00001,32 49.06667,-10.7 98.66667,-74.700004 148,-90.700004 48.66667,-16 97.33334,16 146.66676,32.000004 49.7333,16 98.6666,16 148,26.7 49.4666,10.3 98.6666,32.3 148,16 49.0666,-15.7 98.6666,-69.700004 148,-96.000004 48.8,-26.7 98.6666,-26.7 146.6666,10.6 C 1673.8667,107 1722.6667,181 1772,176 c 49.6,-5 98.6667,-91.000004 124,-133.300004 L 1920,0 v 288 h -24.6666 c -24.5334,0 -74,0 -123.3334,0 -48.9333,0 -98.6666,0 -148,0 -48.6666,0 -97.3333,0 -146.6666,0 -49.6,0 -98.6667,0 -148,0 -49.3334,0 -98.6667,0 -148,0 -49.0667,0 -98.6667,0 -148,0 -48.66675,0 -97.33342,0 -146.66676,0 -49.73333,0 -98.66667,0 -148,0 -49.46667,0 -98.66667,0 -148.00001,0 -49.06666,0 -98.66667,0 -147.99995,0 -48.8,0 -98.66667,0 -146.66667,0 -49.86667,0 -98.66667,0 -148,0 -49.600006,0 -98.666675,0 -124.000009,0 H 0 Z"
     id="path825"
     style="stroke-width:1.1547" />
</svg>
