<?xml version="1.0" encoding="UTF-8" standalone="no"?>
<svg
   width="1920"
   height="442"
   viewBox="0 0 1920 442"
   fill="none"
   version="1.1"
   id="svg4"
   sodipodi:docname="hills2.svg"
   inkscape:version="1.1.1 (3bf5ae0, 2021-09-20)"
   xmlns:inkscape="http://www.inkscape.org/namespaces/inkscape"
   xmlns:sodipodi="http://sodipodi.sourceforge.net/DTD/sodipodi-0.dtd"
   xmlns="http://www.w3.org/2000/svg"
   xmlns:svg="http://www.w3.org/2000/svg">
  <defs
     id="defs8" />
  <sodipodi:namedview
     id="namedview6"
     pagecolor="#ffffff"
     bordercolor="#666666"
     borderopacity="1.0"
     inkscape:pageshadow="2"
     inkscape:pageopacity="0.0"
     inkscape:pagecheckerboard="0"
     showgrid="false"
     inkscape:zoom="0.18763021"
     inkscape:cx="-687.52255"
     inkscape:cy="431.70021"
     inkscape:window-width="1920"
     inkscape:window-height="999"
     inkscape:window-x="0"
     inkscape:window-y="0"
     inkscape:window-maximized="1"
     inkscape:current-layer="svg4" />
  <path
     d="M 0,64.8279 73.487777,91.367832 C 98.021177,106.54313 147.48778,138.95623 196.82108,201.27823 245.75408,264.18923 246.667,347.707 296,339.898 344.667,331.5 421.40457,94.702785 470.73857,54.922785 c 49.6,-39.78 52.58032,-51.17139 95.00434,-28.162298 C 615.07591,50.775487 689.333,237.207 738.667,261.223 787.733,284.354 835.3857,31.527339 884.7197,31.085339 933.3857,31.527339 984,284.354 1033.33,229.841 c 49.74,-54.513 98.67,-134.0732 148,-165.0131 49.47,-30.9398 98.67,-16.2065 148,47.1461 49.07,63.354 98.67,172.38 148,204.351 48.8,31.382 98.67,-15.765 146.67,-86.484 49.87,-70.72 98.67,-165.013 148,-204.3509 49.6,-38.7485 98.67,-24.01523 124,-15.61728 l 24,7.80868 V 442 h -24.67 -123.33 -148 -146.67 -148 -148 -148 -146.663 -148 -148 -148 H 296 148 24 0 Z"
     fill="#002000"
     id="path2"
     sodipodi:nodetypes="ccccccccccccccccccccccccccccccccc" />
</svg>
