<svg width="33" height="33" viewBox="0 0 33 33" fill="none" xmlns="http://www.w3.org/2000/svg">
<path d="M32.4039 30.1999L22.0159 19.8119C23.6279 17.7279 24.4999 15.1799 24.4999 12.4999C24.4999 9.29196 23.2479 6.28397 20.9839 4.01598C18.7199 1.74799 15.7039 0.5 12.4999 0.5C9.29596 0.5 6.27997 1.75199 4.01598 4.01598C1.74799 6.27997 0.5 9.29196 0.5 12.4999C0.5 15.7039 1.75199 18.7199 4.01598 20.9839C6.27997 23.2519 9.29196 24.4999 12.4999 24.4999C15.1799 24.4999 17.7239 23.6279 19.8079 22.0199L30.1959 32.4039C30.2263 32.4343 30.2625 32.4585 30.3023 32.475C30.3421 32.4915 30.3848 32.5 30.4279 32.5C30.471 32.5 30.5136 32.4915 30.5534 32.475C30.5932 32.4585 30.6294 32.4343 30.6599 32.4039L32.4039 30.6639C32.4343 30.6334 32.4585 30.5972 32.475 30.5574C32.4915 30.5176 32.5 30.475 32.5 30.4319C32.5 30.3888 32.4915 30.3461 32.475 30.3063C32.4585 30.2665 32.4343 30.2303 32.4039 30.1999V30.1999ZM18.8359 18.8359C17.1399 20.5279 14.8919 21.4599 12.4999 21.4599C10.108 21.4599 7.85997 20.5279 6.16398 18.8359C4.47198 17.1399 3.53999 14.8919 3.53999 12.4999C3.53999 10.108 4.47198 7.85597 6.16398 6.16398C7.85997 4.47198 10.108 3.53999 12.4999 3.53999C14.8919 3.53999 17.1439 4.46798 18.8359 6.16398C20.5279 7.85997 21.4599 10.108 21.4599 12.4999C21.4599 14.8919 20.5279 17.1439 18.8359 18.8359Z" fill="black"/>
</svg>
