<svg width="324" height="324" viewBox="0 0 324 324" fill="none" xmlns="http://www.w3.org/2000/svg">
<path d="M319.594 280.119L256.498 217.034C253.65 214.186 249.789 212.604 245.739 212.604H235.423C252.89 190.268 263.269 162.174 263.269 131.612C263.269 58.9091 204.35 0 131.635 0C58.9192 0 0 58.9091 0 131.612C0 204.315 58.9192 263.224 131.635 263.224C162.202 263.224 190.301 252.847 212.641 235.383V245.697C212.641 249.747 214.223 253.606 217.071 256.454L280.167 319.539C286.115 325.487 295.735 325.487 301.621 319.539L319.53 301.632C325.479 295.684 325.479 286.067 319.594 280.119ZM131.635 212.604C86.8915 212.604 50.6287 176.411 50.6287 131.612C50.6287 86.8767 86.8282 50.6201 131.635 50.6201C176.378 50.6201 212.641 86.8134 212.641 131.612C212.641 176.348 176.441 212.604 131.635 212.604Z" fill="#4d4b4b"/>
</svg>
