<?xml version="1.0" encoding="UTF-8" standalone="no"?>
<svg
   width="1921"
   height="1080"
   viewBox="0 0 1921 1080"
   fill="none"
   version="1.1"
   id="svg16"
   sodipodi:docname="background.svg"
   inkscape:version="1.1.1 (3bf5ae0, 2021-09-20)"
   xmlns:inkscape="http://www.inkscape.org/namespaces/inkscape"
   xmlns:sodipodi="http://sodipodi.sourceforge.net/DTD/sodipodi-0.dtd"
   xmlns="http://www.w3.org/2000/svg"
   xmlns:svg="http://www.w3.org/2000/svg">
  <defs
     id="defs20" />
  <sodipodi:namedview
     id="namedview18"
     pagecolor="#ffffff"
     bordercolor="#666666"
     borderopacity="1.0"
     inkscape:pageshadow="2"
     inkscape:pageopacity="0.0"
     inkscape:pagecheckerboard="0"
     showgrid="false"
     inkscape:zoom="0.58333333"
     inkscape:cx="960.85714"
     inkscape:cy="540"
     inkscape:window-width="1920"
     inkscape:window-height="999"
     inkscape:window-x="0"
     inkscape:window-y="0"
     inkscape:window-maximized="1"
     inkscape:current-layer="svg16" />
  <path
     d="M1921 0H1V1080H1921V0Z"
     fill="#0095FF"
     id="path2" />
  <path
     d="M1 702.828L25.6667 718.593C50.2001 733.768 99.6667 766.181 149 828.503C197.933 891.414 247.667 985.707 297 977.898C345.667 969.5 394.333 860.474 443.667 820.694C493.267 780.914 551.974 734.863 601.307 757.994C650.64 782.009 690.333 875.207 739.667 899.223C788.733 922.354 838.333 954.767 887.667 954.325C936.333 954.767 985 922.354 1034.33 867.841C1084.07 813.328 1133 733.768 1182.33 702.828C1231.8 671.888 1281 686.621 1330.33 749.974C1379.4 813.328 1429 922.354 1478.33 954.325C1527.13 985.707 1577 938.56 1625 867.841C1674.87 797.121 1723.67 702.828 1773 663.49C1822.6 624.742 1871.67 639.475 1897 647.873L1921 655.682V1080H1896.33H1773H1625H1478.33H1330.33H1182.33H1034.33H887.667H739.667H591.667H443.667H297H149H25H1V702.828Z"
     fill="#002000"
     id="path4" />
  <path
     d="M1 895.7L54.3333 888.151C107.667 880.033 199.339 781.777 306.005 788.899C412.672 796.02 534.333 911.366 641 895.7C747.667 880.033 829.993 914.194 936.66 928.863C1043.33 944.103 1174.33 941.275 1281 918.487C1387.67 895.7 1494.33 758.974 1601 720.947C1707.67 683.49 1814.33 743.308 1867.67 774.213L1921 804.549V1078H1867.67H1601H1281H961H641H321H54.3333H1V895.7Z"
     fill="#003000"
     id="path6" />
  <path
     d="M1.09306 674.632C1.14446 674.632 1.18613 674.584 1.18613 674.524C1.18613 674.464 1.14446 674.415 1.09306 674.415C1.04167 674.415 1 674.464 1 674.524C1 674.584 1.04167 674.632 1.09306 674.632Z"
     fill="#FFFF00"
     stroke="black"
     stroke-width="0.999999"
     id="path10" />
  <path
     d="M1.09306 674.632C1.14446 674.632 1.18613 674.584 1.18613 674.524C1.18613 674.464 1.14446 674.415 1.09306 674.415C1.04167 674.415 1 674.464 1 674.524C1 674.584 1.04167 674.632 1.09306 674.632Z"
     fill="#FFFF00"
     stroke="black"
     stroke-width="0.999999"
     id="path12" />
  <path
     d="M653.662 35.2985C653.764 35.2985 653.847 35.2011 653.847 35.0809C653.847 34.9608 653.764 34.8634 653.662 34.8634C653.559 34.8634 653.476 34.9608 653.476 35.0809C653.476 35.2011 653.559 35.2985 653.662 35.2985Z"
     fill="#FFFF00"
     stroke="black"
     stroke-width="0.999999"
     id="path14" />
</svg>
