<svg width="1920" height="442" viewBox="0 0 1920 442" fill="none" xmlns="http://www.w3.org/2000/svg">
<path d="M0 64.8279L24.6667 80.5926C49.2001 95.7679 98.6667 128.181 148 190.503C196.933 253.414 246.667 347.707 296 339.898C344.667 331.5 393.333 222.474 442.667 182.694C492.267 142.914 550.974 96.8628 600.307 119.994C649.64 144.009 689.333 237.207 738.667 261.223C787.733 284.354 837.333 316.767 886.667 316.325C935.333 316.767 984 284.354 1033.33 229.841C1083.07 175.328 1132 95.7678 1181.33 64.8279C1230.8 33.8881 1280 48.6214 1329.33 111.974C1378.4 175.328 1428 284.354 1477.33 316.325C1526.13 347.707 1576 300.56 1624 229.841C1673.87 159.121 1722.67 64.828 1772 25.4901C1821.6 -13.2584 1870.67 1.47487 1896 9.87282L1920 17.6815V442H1895.33H1772H1624H1477.33H1329.33H1181.33H1033.33H886.667H738.667H590.667H442.667H296H148H24H0V64.8279Z" fill="#002000"/>
</svg>
